<?xml version="1.0" encoding="UTF-8"?>
<svg version="1.1" xmlns="http://www.w3.org/2000/svg" width="556" height="556">
<path d="M0 0 C2.68178515 -0.10788793 5.36158701 -0.18284062 8.04485559 -0.24056935 C9.13956854 -0.28712245 9.13956854 -0.28712245 10.25639689 -0.33461601 C15.42392248 -0.37873316 18.03983188 1.19615808 21.85079432 4.57655406 C23.53030286 6.41909656 25.19721393 8.27320741 26.85079432 10.13905406 C28.63325965 11.65427932 30.44628583 13.13430061 32.28829432 14.57655406 C36.82315593 18.2341167 41.10615614 22.08522433 45.36788416 26.05067515 C49.46710401 29.84242039 53.74818294 33.36317239 58.10079432 36.86171031 C62.07939558 40.15648948 65.85342999 43.65369956 69.63595057 47.17030406 C71.68758552 49.16577194 71.68758552 49.16577194 73.85079432 50.13905406 C73.85079432 165.96905406 73.85079432 281.79905406 73.85079432 401.13905406 C70.07853158 401.89350661 66.80914803 402.33988018 63.00995684 402.54321456 C61.24651833 402.64025281 61.24651833 402.64025281 59.44745481 402.73925143 C58.15983877 402.80637566 56.87222273 402.87349989 55.54558802 402.94265819 C54.16061467 403.01745884 52.77565846 403.09257745 51.3907181 403.16798657 C47.58513638 403.37425655 43.77932388 403.5759523 39.97345757 403.7768935 C35.86802697 403.9944394 31.76282287 404.21618416 27.65758753 404.43737864 C19.61152388 404.87020667 11.56525149 405.29902855 3.51889466 405.72636826 C-3.02789393 406.07411696 -9.57461056 406.42319096 -16.12127829 406.77320743 C-17.0531872 406.82302844 -17.98509611 406.87284945 -18.94524469 406.92418019 C-20.83859421 407.02540322 -22.73194364 407.12662769 -24.625293 407.22785359 C-42.39377824 408.17763753 -60.16251155 409.12271444 -77.93132506 410.066334 C-94.15587247 410.9280848 -110.3801104 411.79551235 -126.60420801 412.66568691 C-143.27984604 413.56003135 -159.95568115 414.45061259 -176.63173711 415.3371312 C-185.98692688 415.8345264 -195.34203459 416.3333562 -204.69693899 416.83609271 C-212.66963311 417.26450336 -220.6425097 417.6893096 -228.61563493 418.1096235 C-232.67679838 418.32380773 -236.73786231 418.53954137 -240.79870367 418.7597549 C-250.24696362 419.27120809 -259.69521079 419.7441256 -269.14920568 420.13905406 C-270.7080625 420.20788582 -270.7080625 420.20788582 -272.29841137 420.27810812 C-274.98019652 420.38599605 -277.65999838 420.46094874 -280.34326696 420.51867747 C-281.07307559 420.54971287 -281.80288422 420.58074826 -282.55480826 420.61272413 C-287.72233385 420.65684128 -290.33824324 419.08195004 -294.14920568 415.70155406 C-295.82871423 413.85901156 -297.4956253 412.00490071 -299.14920568 410.13905406 C-300.93167102 408.6238288 -302.7446972 407.14380751 -304.58670568 405.70155406 C-309.1215673 402.04399142 -313.40456751 398.19288379 -317.66629553 394.22743297 C-321.76551538 390.43568773 -326.04659431 386.91493573 -330.39920568 383.41639781 C-334.37780695 380.12161864 -338.15184135 376.62440856 -341.93436193 373.10780406 C-343.98599689 371.11233618 -343.98599689 371.11233618 -346.14920568 370.13905406 C-346.14920568 254.30905406 -346.14920568 138.47905406 -346.14920568 19.13905406 C-342.37694295 18.38460151 -339.1075594 17.93822794 -335.30836821 17.73489356 C-334.13274254 17.67020139 -332.95711687 17.60550922 -331.74586618 17.53885669 C-329.81444212 17.43817034 -329.81444212 17.43817034 -327.84399939 17.33544993 C-326.45902604 17.26064928 -325.07406983 17.18553067 -323.68912947 17.11012155 C-319.88354775 16.90385157 -316.07773525 16.70215582 -312.27186894 16.50121462 C-308.16643834 16.28366872 -304.06123424 16.06192396 -299.9559989 15.84072948 C-291.90993525 15.40790145 -283.86366286 14.97907957 -275.81730603 14.55173986 C-269.27051744 14.20399116 -262.72380081 13.85491716 -256.17713308 13.50490069 C-255.24522417 13.45507968 -254.31331526 13.40525867 -253.35316668 13.35392793 C-251.45981716 13.2527049 -249.56646773 13.15148043 -247.67311837 13.05025453 C-229.90463313 12.10047059 -212.13589982 11.15539368 -194.36708631 10.21177412 C-178.1425389 9.35002332 -161.91830097 8.48259577 -145.69420336 7.61242121 C-129.01856533 6.71807677 -112.34273022 5.82749553 -95.66667426 4.94097692 C-86.31148449 4.44358172 -76.95637678 3.94475192 -67.60147238 3.44201541 C-59.62877826 3.01360476 -51.65590166 2.58879852 -43.68277644 2.16848462 C-39.62161299 1.95430039 -35.56054906 1.73856675 -31.4997077 1.51835322 C-21.00190037 0.95008593 -10.50295108 0.46376075 0 0 Z " fill="#136CFE" transform="translate(414.14920568466187,67.8609459400177)"/>
<path d="M0 0 C1.09513583 0.93797189 2.19016717 1.87606579 3.28515625 2.81420898 C3.89496338 3.33659653 4.50477051 3.85898407 5.13305664 4.39720154 C8.09747131 6.94219534 11.04894894 9.50203507 14 12.0625 C17.98281965 15.51764481 21.96614048 18.97214625 25.95703125 22.41796875 C31.43224298 27.14850209 36.89787448 31.87981943 42.25 36.75 C46.61972427 40.71647791 51.15446071 44.45110685 55.75 48.15234375 C59.9610745 51.61039624 59.9610745 51.61039624 60.24839699 54.48619521 C60.24763755 55.54561493 60.24687811 56.60503465 60.24609566 57.696558 C60.25007775 58.91624515 60.25405985 60.1359323 60.25816262 61.39257967 C60.25245581 62.75835343 60.2465646 64.12412643 60.24050903 65.48989868 C60.24138044 66.93118089 60.24313023 68.37246279 60.24568737 69.813743 C60.25017763 73.78841375 60.2421343 77.76297754 60.23213124 81.73763466 C60.2235231 86.01848482 60.22641503 90.29932856 60.22793579 94.58018494 C60.22898632 102.00175032 60.22269224 109.42328063 60.21146011 116.84483719 C60.19523073 127.57525958 60.18999974 138.30566495 60.18748413 149.03609829 C60.18310299 166.44399702 60.16978256 183.85187705 60.15087891 201.25976562 C60.13253092 218.17350165 60.11836913 235.0872326 60.10986328 252.00097656 C60.10933783 253.04291257 60.10881239 254.08484858 60.10827102 255.15835841 C60.10566101 260.38525798 60.10313358 265.61215758 60.10064721 270.83905721 C60.07990168 314.2260511 60.04466478 357.61302459 60 401 C57.30327256 399.68867252 55.10766831 398.40366098 52.85546875 396.41796875 C52.26894531 395.90492188 51.68242188 395.391875 51.078125 394.86328125 C50.45421875 394.31027344 49.8303125 393.75726563 49.1875 393.1875 C47.83733684 392.00379531 46.48707365 390.8202047 45.13671875 389.63671875 C44.44884277 389.03134277 43.7609668 388.4259668 43.05224609 387.80224609 C39.8823133 385.01846738 36.69091235 382.25967383 33.5 379.5 C29.6984591 376.20845227 25.89959274 372.91395923 22.109375 369.609375 C21.46291016 369.04669922 20.81644531 368.48402344 20.15039062 367.90429688 C18.94481233 366.85483663 17.74026011 365.80419556 16.53710938 364.75195312 C15.69116211 364.0162207 15.69116211 364.0162207 14.828125 363.265625 C14.27790359 362.77459114 13.72768219 362.28355729 13.1607874 361.77764362 C10.97078576 359.90911162 10.97078576 359.90911162 8.26641434 358.21885878 C4.00976108 355.2735885 0.62018696 352.91735932 -1.01264703 347.86931789 C-1.38547379 344.08674205 -1.41617836 340.38421509 -1.32279968 336.59239197 C-1.32760236 335.13679651 -1.3372446 333.6812104 -1.35128051 332.22567469 C-1.37579056 328.24282556 -1.33201566 324.26325185 -1.27672184 320.28082001 C-1.22909811 315.98032903 -1.2453021 311.68001409 -1.25364685 307.3793335 C-1.25940739 299.93399925 -1.22497563 292.48972754 -1.16303062 285.04466057 C-1.07352922 274.2806138 -1.0449745 263.5170794 -1.03116272 252.75270087 C-1.00710372 235.28739818 -0.93394357 217.82266149 -0.82983398 200.35766602 C-0.72882295 183.39480415 -0.65098106 166.43209615 -0.60424805 149.46899414 C-0.60135809 148.4229232 -0.59846813 147.37685227 -0.5954906 146.29908221 C-0.5811349 141.05110988 -0.56723418 135.80313646 -0.55355966 130.55516231 C-0.43957542 87.03638289 -0.24587484 43.51822069 0 0 Z " fill="#0057E5" transform="translate(68,87)"/>
<path d="M0 0 C2.6818859 -0.10759252 5.36182449 -0.18242274 8.04518056 -0.24024439 C8.77492937 -0.2713396 9.50467818 -0.30243481 10.2565406 -0.3344723 C15.42395295 -0.37924171 18.03925991 1.1955654 21.85012746 4.5758872 C23.529636 6.4184297 25.19654707 8.27254056 26.85012746 10.1383872 C28.6325928 11.65361247 30.44561897 13.13363375 32.28762746 14.5758872 C36.82248907 18.23344984 41.10548928 22.08455748 45.3672173 26.0500083 C49.46643716 29.84175353 53.74751608 33.36250553 58.10012746 36.86104345 C62.07872872 40.15582262 65.85276313 43.6530327 69.63528371 47.1696372 C71.68691867 49.16510509 71.68691867 49.16510509 73.85012746 50.1383872 C73.85012746 50.7983872 73.85012746 51.4583872 73.85012746 52.1383872 C72.31364552 52.21355566 72.31364552 52.21355566 70.74612355 52.29024267 C66.77577585 52.48520284 62.80560995 52.68369449 58.83547902 52.88301611 C57.14900009 52.96724542 55.46247906 53.05063777 53.77590871 53.13301611 C42.70404546 53.67457464 31.64717795 54.34682706 20.58840871 55.11104345 C4.290098 56.2281303 -12.01772636 56.98018462 -28.33737254 57.7008872 C-33.26995253 57.91944329 -38.20242004 58.14027289 -43.1347301 58.36484098 C-45.06149156 58.45169004 -46.98839373 58.53539987 -48.91529918 58.61899328 C-54.15985425 58.85617839 -59.38218004 59.12938191 -64.60812449 59.63618994 C-71.33944597 60.28701668 -78.08261426 60.56125525 -84.83737254 60.8571372 C-86.23020788 60.92028529 -87.62302994 60.98372711 -89.01583934 61.04744482 C-94.13299295 61.28090696 -99.25038119 61.50904394 -104.36776805 61.73732519 C-108.71025034 61.93124804 -113.05262941 62.12725401 -117.39489818 62.32590246 C-119.40582428 62.41707343 -121.41688536 62.50525168 -123.42794871 62.59334326 C-128.84844125 62.84046272 -134.24847476 63.11451162 -139.64987254 63.6383872 C-146.36709836 64.28988349 -153.09658537 64.56186724 -159.83737254 64.8571372 C-161.23020788 64.92028529 -162.62302994 64.98372711 -164.01583934 65.04744482 C-169.13299295 65.28090696 -174.25038119 65.50904394 -179.36776805 65.73732519 C-183.71025034 65.93124804 -188.05262941 66.12725401 -192.39489818 66.32590246 C-194.40582428 66.41707343 -196.41688536 66.50525168 -198.42794871 66.59334326 C-204.83608978 66.88548947 -211.20441906 67.29010649 -217.58892894 67.90974951 C-221.81811977 68.28732613 -226.05276882 68.4632477 -230.29440379 68.6383872 C-231.22548457 68.67899267 -232.15656535 68.71959814 -233.1158607 68.76143408 C-236.06459902 68.88951894 -239.01347324 69.01406967 -241.96237254 69.1383872 C-244.85907035 69.26298682 -247.75573373 69.38831918 -250.65235972 69.51457739 C-252.57704723 69.5969742 -254.50186644 69.67635098 -256.4268043 69.75267553 C-261.39230545 69.9532462 -266.34559181 70.20952188 -271.30294871 70.55977392 C-272.29965083 70.62366308 -273.29635295 70.68755224 -274.32325816 70.75337744 C-276.21907318 70.87652335 -278.11393023 71.01588667 -280.00712657 71.17427588 C-284.32986731 71.43954 -286.56782723 71.44754138 -290.47677684 69.37129736 C-292.98299272 67.13335467 -295.01524754 64.72959562 -297.14987254 62.1383872 C-298.90870169 60.64061366 -300.70204078 59.18257357 -302.52487254 57.7633872 C-307.08008392 54.08072335 -311.3889981 50.20812418 -315.67331004 46.22041845 C-318.86275765 43.2693574 -322.13334047 40.47860203 -325.52487254 37.7633872 C-332.39147291 32.24396758 -338.7492495 26.18393919 -345.14987254 20.1383872 C-341.86273931 18.20319503 -339.22077902 17.81245823 -335.43208289 17.61117887 C-334.25844827 17.54449566 -333.08481365 17.47781244 -331.87561435 17.40910852 C-330.58508546 17.34489713 -329.29455658 17.28068575 -327.96492076 17.21452856 C-326.5807858 17.13931362 -325.19669302 17.06331908 -323.81264001 16.98661101 C-320.00502534 16.77786985 -316.1969007 16.58027847 -312.38860142 16.38448215 C-308.28226766 16.17142965 -304.17649007 15.94812329 -300.07063365 15.72609472 C-292.02130807 15.2924658 -283.97150591 14.86839178 -275.92150312 14.44754277 C-266.53650998 13.95656711 -257.15201499 13.45637364 -247.76752729 12.95584561 C-231.00628324 12.06220958 -214.24459083 11.17727653 -197.48263621 10.29707861 C-181.24562027 9.4444409 -165.00896619 8.58528942 -148.77267528 7.71895361 C-128.25369125 6.62411653 -107.73440764 5.5350757 -87.2148626 4.45080443 C-80.68739152 4.10571968 -74.16003056 3.75859894 -67.6327045 3.41078329 C-59.65633417 2.98587052 -51.67977202 2.56477877 -43.70295649 2.14830457 C-39.63977879 1.93608996 -35.57669696 1.72237032 -31.51383281 1.50422812 C-21.01126976 0.94136469 -10.5074945 0.46163861 0 0 Z " fill="#5FA4F9" transform="translate(414.1498725414276,67.86161279678345)"/>
</svg>
