<?xml version="1.0" encoding="UTF-8"?>
<svg version="1.1" xmlns="http://www.w3.org/2000/svg" width="24" height="24">
<path d="M0 0 C1.70736328 -0.02126953 1.70736328 -0.02126953 3.44921875 -0.04296875 C6.3125 0.1875 6.3125 0.1875 8.3125 2.1875 C8.45767744 5.0968558 8.49880796 7.907446 8.4375 10.8125 C8.42847656 11.61429688 8.41945313 12.41609375 8.41015625 13.2421875 C8.38656223 15.22408523 8.35069065 17.20582981 8.3125 19.1875 C4.37369868 20.11123389 0.66726634 20.35195401 -3.375 20.375 C-5.08236328 20.39626953 -5.08236328 20.39626953 -6.82421875 20.41796875 C-9.6875 20.1875 -9.6875 20.1875 -11.6875 18.1875 C-11.83267744 15.2781442 -11.87380796 12.467554 -11.8125 9.5625 C-11.80347656 8.76070312 -11.79445313 7.95890625 -11.78515625 7.1328125 C-11.76156223 5.15091477 -11.72569065 3.16917019 -11.6875 1.1875 C-7.74869868 0.26376611 -4.04226634 0.02304599 0 0 Z " fill="#136CFE" transform="translate(13.6875,1.8125)"/>
<path d="M0 0 C1.14726562 -0.02578125 2.29453125 -0.0515625 3.4765625 -0.078125 C4.43304688 0.03015625 5.38953125 0.1384375 6.375 0.25 C7.035 1.24 7.695 2.23 8.375 3.25 C5.34069419 4.7671529 2.20094035 4.47513316 -1.125 4.5 C-1.81464844 4.520625 -2.50429687 4.54125 -3.21484375 4.5625 C-5.21875 4.578125 -5.21875 4.578125 -8.625 4.25 C-9.285 3.26 -9.945 2.27 -10.625 1.25 C-7.07243456 0.16498001 -3.70293281 0.05015259 0 0 Z " fill="#539AF9" transform="translate(13.625,1.75)"/>
<path d="M0 0 C1.32 0.99 2.64 1.98 4 3 C4.390625 6.13671875 4.390625 6.13671875 4.25 9.6875 C4.21390625 10.86699219 4.1778125 12.04648438 4.140625 13.26171875 C4.09421875 14.16535156 4.0478125 15.06898437 4 16 C3.34 16.33 2.68 16.66 2 17 C1.34 16.67 0.68 16.34 0 16 C0 10.72 0 5.44 0 0 Z " fill="#035AE9" transform="translate(2,3)"/>
</svg>
